<?xml version="1.0" encoding="UTF-8" standalone="no"?>
<svg
   xmlns:dc="http://purl.org/dc/elements/1.1/"
   xmlns:cc="http://creativecommons.org/ns#"
   xmlns:rdf="http://www.w3.org/1999/02/22-rdf-syntax-ns#"
   xmlns:svg="http://www.w3.org/2000/svg"
   xmlns="http://www.w3.org/2000/svg"
   xmlns:sodipodi="http://sodipodi.sourceforge.net/DTD/sodipodi-0.dtd"
   xmlns:inkscape="http://www.inkscape.org/namespaces/inkscape"
   viewBox="0 0 999.99998 790.57507"
   version="1.1"
   id="svg6"
   sodipodi:docname="gyg.svg"
   width="1000"
   height="790.57507"
   inkscape:version="0.92.4 (5da689c313, 2019-01-14)">
  <metadata
     id="metadata12">
    <rdf:RDF>
      <cc:Work
         rdf:about="">
        <dc:format>image/svg+xml</dc:format>
        <dc:type
           rdf:resource="http://purl.org/dc/dcmitype/StillImage" />
        <dc:title></dc:title>
      </cc:Work>
    </rdf:RDF>
  </metadata>
  <defs
     id="defs10" />
  <sodipodi:namedview
     pagecolor="#ffffff"
     bordercolor="#666666"
     borderopacity="1"
     objecttolerance="10"
     gridtolerance="10"
     guidetolerance="10"
     inkscape:pageopacity="0"
     inkscape:pageshadow="2"
     inkscape:window-width="1920"
     inkscape:window-height="1017"
     id="namedview8"
     showgrid="false"
     fit-margin-top="0"
     fit-margin-left="0"
     fit-margin-right="0"
     fit-margin-bottom="0"
     inkscape:zoom="0.29431605"
     inkscape:cx="944.69976"
     inkscape:cy="35.840817"
     inkscape:window-x="1912"
     inkscape:window-y="-8"
     inkscape:window-maximized="1"
     inkscape:current-layer="svg6" />
  <path
     d="m 229.50363,356.38594 a 27.886224,27.886224 0 1 1 28.16508,27.60737 h -0.55772 a 27.3285,27.3285 0 0 1 -27.60736,-27.04964 z m 49.07975,-49.63747 a 27.3285,27.3285 0 1 0 0,-0.55773 z"
     id="path2"
     inkscape:connector-curvature="0"
     style="fill:#ff5533;stroke-width:2.78862238" />
  <path
     d="m 345.78918,273.00613 v 49.35862 c 38.48299,0 69.15784,31.7903 69.15784,72.78305 0,40.99275 -30.67485,72.78304 -69.15784,72.78304 -38.48299,0 -69.15784,-31.51143 -69.15784,-72.78304 h -54.09927 c 0,68.60011 54.657,122.42052 123.25711,122.42052 68.60011,0 123.25711,-53.82041 123.25711,-122.42052 0,-68.60012 -54.657,-122.14167 -123.25711,-122.14167 z M 902.11935,738.42722 V 691.2995 h 87.00502 v -46.84886 h -87.00502 v -46.56999 h 96.20748 v -47.12772 h -149.1913 v 234.802 H 1000 V 738.42722 Z M 693.25153,550.1952 h -77.5237 v 235.35973 h 77.5237 c 72.78305,0 124.37256,-49.91634 124.37256,-117.401 0,-67.48466 -51.58951,-117.95873 -124.37256,-117.95873 z m 4.18294,188.23202 H 668.71166 V 597.60178 h 28.72281 c 39.31957,0 66.09035,30.39599 66.09035,70.55215 0,40.15616 -26.77078,70.27329 -66.09035,70.27329 z M 409.64863,695.20357 c 0,27.04964 -19.52035,46.84886 -45.7334,46.84886 -26.21305,0 -45.73341,-19.79922 -45.73341,-46.84886 V 550.75293 h -52.70497 v 143.33519 c 0,55.49359 41.55048,96.48634 98.43838,96.48634 56.88789,0 98.15951,-40.99275 98.15951,-96.48634 V 550.75293 H 409.64863 Z M 697.71333,421.36085 V 277.74679 h -52.4261 v 144.45064 c 0,27.04964 -19.52036,47.12772 -45.73341,47.12772 -26.21305,0 -45.73341,-20.07808 -45.73341,-47.12772 V 277.74679 h -52.4261 v 143.61406 c 0,55.21472 41.27161,96.20747 98.15951,96.20747 56.8879,0 98.15951,-40.99275 98.15951,-96.20747 z M 88.678193,512.82766 H 141.38316 V 423.59174 L 229.78249,277.74679 H 170.38483 L 114.61238,373.95427 59.67652,277.74679 H 0 L 88.678193,424.14947 Z M 439.76576,4.74066 H 618.23759 V 52.14724 H 439.76576 Z m -22.58785,187.67429 h -97.88064 v -46.84886 h 87.28388 V 98.43837 H 319.29727 V 52.14724 h 96.20747 V 4.74066 H 266.5923 V 239.82153 H 417.17791 Z M 817.90296,453.43 l -27.3285,-28.72281 27.04963,-29.28053 -27.3285,-28.72281 26.77078,-29.28054 -27.3285,-28.72281 30.11712,-30.95371 h -54.657 l -29.83826,31.23257 27.3285,28.72281 -26.77077,29.28054 27.04963,28.72281 -26.77077,29.28054 27.3285,29.00167 -27.04964,29.00167 29.00167,30.11712 h 54.93587 l -29.5594,-30.39598 z m -256.2744,207.75237 c 7.80814,-6.97155 20.91466,-18.68377 20.91466,-40.43502 0,-21.75126 -13.10652,-33.18461 -20.91466,-40.15616 l -0.83659,-1.11545 a 18.404908,18.404908 0 0 1 -4.74066,-12.5488 V 550.1952 h -52.98383 v 22.03012 h 0.27887 v 0.83659 c 0,21.75125 13.10652,33.46346 20.91467,40.43502 7.80814,6.97156 5.57724,5.29838 5.57724,7.25042 0,1.95204 0,2.50976 -5.57724,7.52928 -5.57725,5.01952 -19.79922,17.84718 -20.63581,37.92527 v 3.6252 c 0.83659,20.07809 13.10652,31.23258 20.63581,37.92527 7.52928,6.69269 5.57724,5.29838 5.57724,7.25042 0,1.95203 0,2.50976 -5.57724,7.52928 -5.57725,5.01952 -20.91467,18.68377 -20.91467,40.43502 v 0.55773 h -0.27887 v 22.03011 h 52.98383 v -16.45287 a 19.799219,19.799219 0 0 1 4.74066,-12.82766 l 0.83659,-0.83659 c 7.80814,-6.97155 20.91466,-18.68377 20.91466,-40.43502 0,-21.75126 -13.10652,-33.18461 -20.91466,-40.43503 -7.80815,-7.25042 -5.57725,-5.01952 -5.57725,-6.69269 0,-1.67317 0.83659,-2.2309 5.85611,-6.6927 z m -59.1188,-465.14221 h 52.70496 v 43.78137 h -52.70496 z m 0,-62.74401 h 52.70496 v 43.78137 h -52.70496 z m 0,-62.46514 h 52.70496 v 43.78137 h -52.70496 z m 452.59342,441.99665 -64.13832,-89.79364 a 74.177356,74.177356 0 0 0 53.26269,-70.55215 c 0,-42.66592 -35.13664,-74.73508 -79.7546,-74.73508 H 833.7981 v 47.68545 h 28.72281 a 28.443949,28.443949 0 0 1 0,56.60903 H 833.7981 v 45.17568 l 57.16676,85.61071 z M 220.8589,66.92694 C 207.47351,25.93419 163.41327,0 112.93921,0 49.358617,0 1.6731735,42.94478 1.6731735,105.40993 v 32.34802 c 0,61.62855 44.8968205,107.0831 100.6692665,107.0831 a 99.832683,99.832683 0 0 0 80.59119,-40.43503 v 35.41551 H 228.9459 V 110.15058 H 104.57334 v 44.06024 h 67.76353 c -5.57725,24.26101 -28.72282,42.94478 -58.28221,42.94478 -29.559401,0 -61.070834,-24.26101 -61.070834,-59.39765 v -32.34802 c 0,-33.18461 24.81874,-57.72449 59.676524,-57.72449 27.04963,0 51.31065,14.7797 59.39765,36.53096 z m 0,545.7334 c -13.38539,-40.99275 -57.44563,-66.92693 -107.91969,-66.92693 -63.580593,0 -111.2660365,42.94478 -111.2660365,105.40992 v 32.34802 c 0,61.62856 44.8968205,107.08311 100.6692665,107.08311 a 99.832683,99.832683 0 0 0 80.59119,-40.43503 v 35.4155 H 228.9459 V 655.88399 H 104.57334 v 44.06024 h 67.76353 c -5.57725,24.26101 -28.72282,42.94478 -58.28221,42.94478 -29.559401,0 -61.070834,-24.26101 -61.070834,-59.39766 v -32.34802 c 0,-33.1846 24.81874,-57.72448 59.676524,-57.72448 27.04963,0 51.31065,14.7797 59.39765,36.53095 z"
     id="path4"
     inkscape:connector-curvature="0"
     style="fill:#ff5533;stroke-width:2.78862238" />
</svg>
