<svg xmlns="http://www.w3.org/2000/svg" xmlns:xlink="http://www.w3.org/1999/xlink" width="2000" zoomAndPan="magnify" viewBox="0 0 1500 1499.999933" height="2000" preserveAspectRatio="xMidYMid meet" version="1.0"><defs><clipPath id="70a54d159b"><path d="M 0 0 L 1500 0 L 1500 1500 L 0 1500 Z M 0 0 " clip-rule="nonzero"/></clipPath><clipPath id="6e466fe789"><rect x="0" width="1500" y="0" height="1500"/></clipPath><clipPath id="07b9aa58f6"><path d="M 821 466 L 1241.34375 466 L 1241.34375 732 L 821 732 Z M 821 466 " clip-rule="nonzero"/></clipPath></defs><g transform="matrix(1, 0, 0, 1, 0, 0.000000000000112861)"><g clip-path="url(#6e466fe789)"><g clip-path="url(#70a54d159b)"><rect x="-330" width="2160" fill="#fcf9da" height="2159.999904" y="-329.999985" fill-opacity="1"/></g></g></g><path fill="#ffbf00" d="M 704.898438 964.054688 C 798.058594 922.613281 854.1875 909.058594 889.246094 870.054688 C 858.203125 952.265625 743.179688 983.550781 688.648438 1013.433594 C 608.886719 1057.15625 571.167969 1098.121094 550.171875 1145.410156 C 570.097656 1076.621094 613.636719 1004.652344 704.898438 964.054688 " fill-opacity="1" fill-rule="nonzero"/><path fill="#612505" d="M 1044.828125 636.800781 C 1044.828125 636.800781 1027.269531 636.085938 999.457031 686.582031 C 952.503906 771.847656 974.449219 913.199219 752.542969 1001.234375 C 752.542969 1001.234375 799.324219 993.441406 852.007812 972.382812 C 885.144531 959.132812 959.433594 917.441406 977.75 841.730469 C 977.75 841.730469 977.628906 880.5625 955.28125 922.40625 C 973.636719 909.851562 989.1875 895.808594 999.5 880.253906 C 1063.324219 783.957031 994.566406 671.371094 1044.828125 636.800781 " fill-opacity="1" fill-rule="nonzero"/><path fill="#a30923" d="M 485.449219 1020.507812 C 503.097656 960.835938 567.097656 938.726562 567.097656 938.726562 C 484.355469 995.652344 439.394531 1163.453125 499.753906 1320.800781 C 499.753906 1320.800781 434.636719 1058.78125 639.046875 953.40625 C 822.667969 858.753906 849.625 769.089844 849.625 769.089844 C 785.621094 824.175781 721.996094 831.222656 659.558594 848.910156 C 611.6875 862.472656 477.648438 912.910156 485.449219 1020.507812 " fill-opacity="1" fill-rule="nonzero"/><g clip-path="url(#07b9aa58f6)"><path fill="#a30923" d="M 1029.535156 562.730469 C 1029.535156 562.730469 900.078125 491.554688 872.222656 617.675781 C 853.136719 704.0625 832.769531 726.109375 821.835938 731.429688 C 843.117188 729.859375 890.265625 721.621094 927.292969 680.75 C 927.292969 680.75 913.121094 704.160156 891.628906 727.453125 C 938.617188 706.710938 996.074219 660.113281 1051.019531 589.925781 C 1143.773438 471.429688 1241.199219 472.035156 1241.199219 472.035156 C 1145.765625 440.765625 1029.535156 562.730469 1029.535156 562.730469 " fill-opacity="1" fill-rule="nonzero"/></g><path fill="#047b3e" d="M 873.554688 820.046875 C 838.488281 859.046875 782.363281 872.601562 689.207031 914.042969 C 537.789062 981.402344 517.664062 1135.121094 518.953125 1217.398438 C 528.101562 1153.171875 560.832031 1025.6875 672.953125 963.425781 C 727.3125 933.238281 842.5 902.261719 873.554688 820.046875 " fill-opacity="1" fill-rule="nonzero"/><path fill="#047b3e" d="M 440.425781 413.210938 C 501.984375 542.550781 694.105469 696.222656 798.863281 751.539062 C 332.539062 694.285156 440.425781 413.210938 440.425781 413.210938 " fill-opacity="1" fill-rule="nonzero"/><path fill="#612505" d="M 413.527344 628.550781 C 571.582031 755.589844 788.554688 759.667969 788.554688 759.667969 C 497.316406 892.390625 413.527344 628.550781 413.527344 628.550781 " fill-opacity="1" fill-rule="nonzero"/><path fill="#a30923" d="M 697.542969 475.574219 C 724.160156 558.414062 760.765625 645.128906 797.1875 712.773438 C 758.929688 592.195312 726.027344 381.417969 760.984375 256.273438 C 760.984375 256.273438 695.945312 290.792969 668.167969 367.941406 C 675.609375 401.792969 685.429688 437.871094 697.542969 475.574219 " fill-opacity="1" fill-rule="nonzero"/><path fill="#ffbf00" d="M 593.605469 179.300781 C 579.875 339.941406 713.679688 620.460938 806.761719 748.285156 C 258.890625 346.234375 593.605469 179.300781 593.605469 179.300781 " fill-opacity="1" fill-rule="nonzero"/></svg>